<mxfile host="app.diagrams.net" modified="2023-12-07T18:27:18.678Z" agent="Mozilla/5.0 (Windows NT 10.0; Win64; x64) AppleWebKit/537.36 (KHTML, like Gecko) Chrome/119.0.0.0 Safari/537.36" etag="dHoQ_Ez9fo3zvGkxbGjq" version="22.1.7" type="device">
  <diagram name="Page-1" id="uzT58oXzL_hGevBIWJ53">
    <mxGraphModel dx="1434" dy="768" grid="1" gridSize="10" guides="1" tooltips="1" connect="1" arrows="1" fold="1" page="1" pageScale="1" pageWidth="850" pageHeight="1100" math="0" shadow="0">
      <root>
        <mxCell id="0" />
        <mxCell id="1" parent="0" />
        <mxCell id="2bEdrGetUC7FzCi4ciRc-22" value="Process" style="swimlane;fontStyle=1;align=center;verticalAlign=top;childLayout=stackLayout;horizontal=1;startSize=26;horizontalStack=0;resizeParent=1;resizeParentMax=0;resizeLast=0;collapsible=1;marginBottom=0;whiteSpace=wrap;html=1;" parent="1" vertex="1">
          <mxGeometry x="80" y="100" width="520" height="74" as="geometry" />
        </mxCell>
        <mxCell id="2bEdrGetUC7FzCi4ciRc-24" value="" style="line;strokeWidth=1;fillColor=none;align=left;verticalAlign=middle;spacingTop=-1;spacingLeft=3;spacingRight=3;rotatable=0;labelPosition=right;points=[];portConstraint=eastwest;strokeColor=inherit;" parent="2bEdrGetUC7FzCi4ciRc-22" vertex="1">
          <mxGeometry y="26" width="520" height="8" as="geometry" />
        </mxCell>
        <mxCell id="2bEdrGetUC7FzCi4ciRc-25" value="+ run(config: ProcessConfiguration, console: Console): bool&lt;br&gt;+ run(rawCmdLineArgs: string[], defaultConfig: ProcessConfiguration, console: Console): bool" style="text;strokeColor=none;fillColor=none;align=left;verticalAlign=top;spacingLeft=4;spacingRight=4;overflow=hidden;rotatable=0;points=[[0,0.5],[1,0.5]];portConstraint=eastwest;whiteSpace=wrap;html=1;" parent="2bEdrGetUC7FzCi4ciRc-22" vertex="1">
          <mxGeometry y="34" width="520" height="40" as="geometry" />
        </mxCell>
        <mxCell id="gqfQ06GiDj0p13VeDhqb-1" value="RawCmdLineArgParser" style="swimlane;fontStyle=1;align=center;verticalAlign=top;childLayout=stackLayout;horizontal=1;startSize=26;horizontalStack=0;resizeParent=1;resizeParentMax=0;resizeLast=0;collapsible=1;marginBottom=0;whiteSpace=wrap;html=1;" vertex="1" parent="1">
          <mxGeometry x="680" y="100" width="620" height="60" as="geometry" />
        </mxCell>
        <mxCell id="gqfQ06GiDj0p13VeDhqb-3" value="" style="line;strokeWidth=1;fillColor=none;align=left;verticalAlign=middle;spacingTop=-1;spacingLeft=3;spacingRight=3;rotatable=0;labelPosition=right;points=[];portConstraint=eastwest;strokeColor=inherit;" vertex="1" parent="gqfQ06GiDj0p13VeDhqb-1">
          <mxGeometry y="26" width="620" height="8" as="geometry" />
        </mxCell>
        <mxCell id="gqfQ06GiDj0p13VeDhqb-4" value="+ parseRawCmdLineArgs(rawCmdLineArgs: string[], defaultConfig: ProcessConfiguration): ProcessConfiguration" style="text;strokeColor=none;fillColor=none;align=left;verticalAlign=top;spacingLeft=4;spacingRight=4;overflow=hidden;rotatable=0;points=[[0,0.5],[1,0.5]];portConstraint=eastwest;whiteSpace=wrap;html=1;" vertex="1" parent="gqfQ06GiDj0p13VeDhqb-1">
          <mxGeometry y="34" width="620" height="26" as="geometry" />
        </mxCell>
        <mxCell id="gqfQ06GiDj0p13VeDhqb-5" value="1" style="endArrow=open;html=1;endSize=12;startArrow=diamondThin;startSize=14;startFill=1;edgeStyle=orthogonalEdgeStyle;align=left;verticalAlign=bottom;rounded=0;" edge="1" parent="1">
          <mxGeometry x="-1" y="3" relative="1" as="geometry">
            <mxPoint x="590" y="136.5" as="sourcePoint" />
            <mxPoint x="680" y="137" as="targetPoint" />
          </mxGeometry>
        </mxCell>
        <mxCell id="gqfQ06GiDj0p13VeDhqb-6" value="Classname" style="swimlane;fontStyle=1;align=center;verticalAlign=top;childLayout=stackLayout;horizontal=1;startSize=26;horizontalStack=0;resizeParent=1;resizeParentMax=0;resizeLast=0;collapsible=1;marginBottom=0;whiteSpace=wrap;html=1;" vertex="1" parent="1">
          <mxGeometry x="680" y="200" width="160" height="86" as="geometry" />
        </mxCell>
        <mxCell id="gqfQ06GiDj0p13VeDhqb-7" value="+ field: type" style="text;strokeColor=none;fillColor=none;align=left;verticalAlign=top;spacingLeft=4;spacingRight=4;overflow=hidden;rotatable=0;points=[[0,0.5],[1,0.5]];portConstraint=eastwest;whiteSpace=wrap;html=1;" vertex="1" parent="gqfQ06GiDj0p13VeDhqb-6">
          <mxGeometry y="26" width="160" height="26" as="geometry" />
        </mxCell>
        <mxCell id="gqfQ06GiDj0p13VeDhqb-8" value="" style="line;strokeWidth=1;fillColor=none;align=left;verticalAlign=middle;spacingTop=-1;spacingLeft=3;spacingRight=3;rotatable=0;labelPosition=right;points=[];portConstraint=eastwest;strokeColor=inherit;" vertex="1" parent="gqfQ06GiDj0p13VeDhqb-6">
          <mxGeometry y="52" width="160" height="8" as="geometry" />
        </mxCell>
        <mxCell id="gqfQ06GiDj0p13VeDhqb-9" value="+ method(type): type" style="text;strokeColor=none;fillColor=none;align=left;verticalAlign=top;spacingLeft=4;spacingRight=4;overflow=hidden;rotatable=0;points=[[0,0.5],[1,0.5]];portConstraint=eastwest;whiteSpace=wrap;html=1;" vertex="1" parent="gqfQ06GiDj0p13VeDhqb-6">
          <mxGeometry y="60" width="160" height="26" as="geometry" />
        </mxCell>
      </root>
    </mxGraphModel>
  </diagram>
</mxfile>
